<svg xmlns="http://www.w3.org/2000/svg" width="1936" height="608" viewBox="0 0 1936 608" role="img" aria-label="iOS App Flow">
  <defs>
    <marker id="arrow" markerWidth="9" markerHeight="9" refX="8" refY="4.5" orient="auto" markerUnits="strokeWidth">
      <path d="M 0 0 L 9 4.5 L 0 9 z" fill="#6F7C84"/>
    </marker>
  </defs>
  <rect width="100%" height="100%" fill="white"/>
  <g font-family="Arial, sans-serif">
    
    <rect x="78" y="74" width="298" height="384" rx="14" fill="#F7FAFC" stroke="#CFD8DC" stroke-width="2" stroke-dasharray="8 8"/>
    <text x="227" y="102" text-anchor="middle" font-size="20" fill="#263238">Inputs</text>
  

    <rect x="382" y="184" width="906" height="164" rx="14" fill="#F7FAFC" stroke="#CFD8DC" stroke-width="2" stroke-dasharray="8 8"/>
    <text x="835" y="212" text-anchor="middle" font-size="20" fill="#263238">App Runtime</text>
  

    <rect x="1294" y="74" width="602" height="494" rx="14" fill="#F7FAFC" stroke="#CFD8DC" stroke-width="2" stroke-dasharray="8 8"/>
    <text x="1595" y="102" text-anchor="middle" font-size="20" fill="#263238">User Interface</text>
  
    <path d="M 342.0 170.0 L 515.0 170.0 Q 531.0 170.0 531.0 186.0 L 531.0 246.0" fill="none" stroke="#6F7C84" stroke-width="3" stroke-linecap="round" stroke-linejoin="round"  marker-end="url(#arrow)"/>
<path d="M 342.0 390.0 L 515.0 390.0 Q 531.0 390.0 531.0 374.0 L 531.0 314.0" fill="none" stroke="#6F7C84" stroke-width="3" stroke-linecap="round" stroke-linejoin="round"  marker-end="url(#arrow)"/>
<path d="M 646.0 280.0 L 720.0 280.0" fill="none" stroke="#6F7C84" stroke-width="3" stroke-linecap="round" stroke-linejoin="round"  marker-end="url(#arrow)"/>
<path d="M 950.0 280.0 L 1024.0 280.0" fill="none" stroke="#6F7C84" stroke-width="3" stroke-linecap="round" stroke-linejoin="round"  marker-end="url(#arrow)"/>
<path d="M 1254.0 280.0 L 1328.0 280.0" fill="none" stroke="#6F7C84" stroke-width="3" stroke-linecap="round" stroke-linejoin="round"  marker-end="url(#arrow)"/>
<path d="M 1558.0 280.0 L 1579.0 280.0 Q 1595.0 280.0 1595.0 264.0 L 1595.0 186.0 Q 1595.0 170.0 1611.0 170.0 L 1632.0 170.0" fill="none" stroke="#6F7C84" stroke-width="3" stroke-linecap="round" stroke-linejoin="round"  marker-end="url(#arrow)"/>
<path d="M 1558.0 280.0 L 1632.0 280.0" fill="none" stroke="#6F7C84" stroke-width="3" stroke-linecap="round" stroke-linejoin="round"  marker-end="url(#arrow)"/>
<path d="M 1558.0 280.0 L 1579.0 280.0 Q 1595.0 280.0 1595.0 296.0 L 1595.0 374.0 Q 1595.0 390.0 1611.0 390.0 L 1632.0 390.0" fill="none" stroke="#6F7C84" stroke-width="3" stroke-linecap="round" stroke-linejoin="round"  marker-end="url(#arrow)"/>
<path d="M 1443.0 314.0 L 1443.0 466.0" fill="none" stroke="#6F7C84" stroke-width="3" stroke-linecap="round" stroke-linejoin="round"  marker-end="url(#arrow)"/>
    <g><rect x="112" y="136" width="230" height="68" rx="10" fill="#E8F5E9" stroke="#43A047" stroke-width="2.5" />
<text x="227" y="169.0" text-anchor="middle" font-size="17" fill="#263238">live sensors</text>
<text x="227" y="184.0" text-anchor="middle" font-size="12" fill="#607D8B">CoreMotion + CoreLocation</text></g>
<g>
      <path d="M 112 369 C 112 352, 342 352, 342 369 L 342 411 C 342 428, 112 428, 112 411 Z" fill="#FFF3E0" stroke="#FFB74D" stroke-width="2.5"/>
      <path d="M 112 369 C 112 386, 342 386, 342 369" fill="none" stroke="#FFB74D" stroke-width="2.5"/>
<text x="227" y="389.0" text-anchor="middle" font-size="17" fill="#263238">.motionfusion sessions</text>
<text x="227" y="404.0" text-anchor="middle" font-size="12" fill="#607D8B">recorded raw events</text></g>
<g><rect x="416" y="246" width="230" height="68" rx="10" fill="#E1F5FE" stroke="#0277BD" stroke-width="2.5" />
<text x="531" y="279.0" text-anchor="middle" font-size="17" fill="#263238">SensorStore</text>
<text x="531" y="294.0" text-anchor="middle" font-size="12" fill="#607D8B">stream, record, replay</text></g>
<g><rect x="720" y="246" width="230" height="68" rx="10" fill="#E1F5FE" stroke="#0277BD" stroke-width="2.5" />
<text x="835" y="279.0" text-anchor="middle" font-size="17" fill="#263238">Rust FFI</text>
<text x="835" y="294.0" text-anchor="middle" font-size="12" fill="#607D8B">fusion + road events</text></g>
<g><rect x="1024" y="246" width="230" height="68" rx="10" fill="#FFF9C4" stroke="#FBC02D" stroke-width="2.5" />
<text x="1139" y="279.0" text-anchor="middle" font-size="17" fill="#263238">app state</text>
<text x="1139" y="294.0" text-anchor="middle" font-size="12" fill="#607D8B">health, route, events</text></g>
<g><rect x="1328" y="246" width="230" height="68" rx="10" fill="#FFF9C4" stroke="#FBC02D" stroke-width="2.5" />
<text x="1443" y="279.0" text-anchor="middle" font-size="17" fill="#263238">UI surfaces</text>
<text x="1443" y="294.0" text-anchor="middle" font-size="12" fill="#607D8B">SwiftUI tabs + debug views</text></g>
<g><rect x="1632" y="136" width="230" height="68" rx="10" fill="#FCE4EC" stroke="#E91E63" stroke-width="2.5" />
<text x="1747" y="169.0" text-anchor="middle" font-size="17" fill="#263238">Drive</text>
<text x="1747" y="184.0" text-anchor="middle" font-size="12" fill="#607D8B">map, route, events</text></g>
<g><rect x="1632" y="246" width="230" height="68" rx="10" fill="#FCE4EC" stroke="#E91E63" stroke-width="2.5" />
<text x="1747" y="279.0" text-anchor="middle" font-size="17" fill="#263238">Review</text>
<text x="1747" y="294.0" text-anchor="middle" font-size="12" fill="#607D8B">sessions + replay</text></g>
<g><rect x="1632" y="356" width="230" height="68" rx="10" fill="#FCE4EC" stroke="#E91E63" stroke-width="2.5" />
<text x="1747" y="389.0" text-anchor="middle" font-size="17" fill="#263238">Settings</text>
<text x="1747" y="404.0" text-anchor="middle" font-size="12" fill="#607D8B">alerts, presets, mount memory</text></g>
<g><rect x="1328" y="466" width="230" height="68" rx="10" fill="#FFFFFF" stroke="#CFD8DC" stroke-width="1.5" stroke-dasharray="8 8"/>
<text x="1443" y="499.0" text-anchor="middle" font-size="17" fill="#263238">Diagnostics</text>
<text x="1443" y="514.0" text-anchor="middle" font-size="12" fill="#607D8B">debug-only health + charts</text></g>
  </g>
</svg>